<?xml version="1.0" encoding="utf-8"?>
<svg xmlns="http://www.w3.org/2000/svg" version="1.1" width="1000" height="800">

<rect x="0" y="0" width="800" height="800" rx="5" fill="rgb(240,220,210)" />
<line x1="0" y1="0" x2="1000" y2="0" stroke="lightgrey" />
<text x="5" y="-5" fill="lightgrey" >0</text>
<line x1="0" y1="100" x2="1000" y2="100" stroke="lightgrey" />
<text x="5" y="95" fill="lightgrey" >100</text>
<line x1="0" y1="200" x2="1000" y2="200" stroke="lightgrey" />
<text x="5" y="195" fill="lightgrey" >200</text>
<line x1="0" y1="300" x2="1000" y2="300" stroke="lightgrey" />
<text x="5" y="295" fill="lightgrey" >300</text>
<line x1="0" y1="400" x2="1000" y2="400" stroke="lightgrey" />
<text x="5" y="395" fill="lightgrey" >400</text>
<line x1="0" y1="500" x2="1000" y2="500" stroke="lightgrey" />
<text x="5" y="495" fill="lightgrey" >500</text>
<line x1="0" y1="600" x2="1000" y2="600" stroke="lightgrey" />
<text x="5" y="595" fill="lightgrey" >600</text>
<line x1="0" y1="700" x2="1000" y2="700" stroke="lightgrey" />
<text x="5" y="695" fill="lightgrey" >700</text>
<line x1="0" y1="800" x2="1000" y2="800" stroke="lightgrey" />
<text x="5" y="795" fill="lightgrey" >800</text>
<line x1="0" y1="0" x2="0" y2="800" stroke="lightgrey" />
<text x="5" y="15" fill="lightgrey" >0</text>
<line x1="100" y1="0" x2="100" y2="800" stroke="lightgrey" />
<text x="105" y="15" fill="lightgrey" >100</text>
<line x1="200" y1="0" x2="200" y2="800" stroke="lightgrey" />
<text x="205" y="15" fill="lightgrey" >200</text>
<line x1="300" y1="0" x2="300" y2="800" stroke="lightgrey" />
<text x="305" y="15" fill="lightgrey" >300</text>
<line x1="400" y1="0" x2="400" y2="800" stroke="lightgrey" />
<text x="405" y="15" fill="lightgrey" >400</text>
<line x1="500" y1="0" x2="500" y2="800" stroke="lightgrey" />
<text x="505" y="15" fill="lightgrey" >500</text>
<line x1="600" y1="0" x2="600" y2="800" stroke="lightgrey" />
<text x="605" y="15" fill="lightgrey" >600</text>
<line x1="700" y1="0" x2="700" y2="800" stroke="lightgrey" />
<text x="705" y="15" fill="lightgrey" >700</text>
<line x1="800" y1="0" x2="800" y2="800" stroke="lightgrey" />
<text x="805" y="15" fill="lightgrey" >800</text>
<line x1="900" y1="0" x2="900" y2="800" stroke="lightgrey" />
<text x="905" y="15" fill="lightgrey" >900</text>
<line x1="1000" y1="0" x2="1000" y2="800" stroke="lightgrey" />
<text x="1005" y="15" fill="lightgrey" >1000</text>
<line x1="111" y1="46" x2="124" y2="64" stroke="rgb(255,20,0)" />
<line x1="124" y1="64" x2="111" y2="46" stroke="rgb(255,20,0)" />
<line x1="124" y1="64" x2="122" y2="83" stroke="rgb(255,20,0)" />
<line x1="122" y1="83" x2="124" y2="64" stroke="rgb(255,20,0)" />
<line x1="122" y1="83" x2="123" y2="101" stroke="rgb(255,20,0)" />
<line x1="123" y1="101" x2="122" y2="83" stroke="rgb(255,20,0)" />
<line x1="123" y1="101" x2="129" y2="120" stroke="rgb(255,20,0)" />
<line x1="129" y1="120" x2="140" y2="130" stroke="rgb(255,20,0)" />
<line x1="129" y1="120" x2="123" y2="101" stroke="rgb(255,20,0)" />
<line x1="140" y1="130" x2="156" y2="145" stroke="rgb(255,20,0)" />
<line x1="140" y1="130" x2="129" y2="120" stroke="rgb(255,20,0)" />
<line x1="65" y1="150" x2="100" y2="142" stroke="rgb(255,20,0)" />
<line x1="100" y1="142" x2="65" y2="150" stroke="rgb(255,20,0)" />
<line x1="100" y1="142" x2="156" y2="145" stroke="rgb(255,20,0)" />
<line x1="156" y1="145" x2="168" y2="158" stroke="rgb(255,20,0)" />
<line x1="156" y1="145" x2="140" y2="130" stroke="rgb(255,20,0)" />
<line x1="156" y1="145" x2="100" y2="142" stroke="rgb(255,20,0)" />
<line x1="168" y1="158" x2="178" y2="169" stroke="rgb(255,20,0)" />
<line x1="168" y1="158" x2="156" y2="145" stroke="rgb(255,20,0)" />
<line x1="178" y1="169" x2="168" y2="158" stroke="rgb(255,20,0)" />
<line x1="178" y1="169" x2="203" y2="194" stroke="rgb(255,20,0)" />
<line x1="98" y1="201" x2="111" y2="215" stroke="rgb(255,20,0)" />
<line x1="111" y1="215" x2="123" y2="226" stroke="rgb(255,20,0)" />
<line x1="111" y1="215" x2="98" y2="201" stroke="rgb(255,20,0)" />
<line x1="123" y1="226" x2="139" y2="234" stroke="rgb(255,20,0)" />
<line x1="123" y1="226" x2="111" y2="215" stroke="rgb(255,20,0)" />
<line x1="139" y1="234" x2="123" y2="226" stroke="rgb(255,20,0)" />
<line x1="139" y1="234" x2="169" y2="215" stroke="rgb(255,20,0)" />
<line x1="169" y1="215" x2="139" y2="234" stroke="rgb(255,20,0)" />
<line x1="169" y1="215" x2="181" y2="205" stroke="rgb(255,20,0)" />
<line x1="181" y1="205" x2="192" y2="193" stroke="rgb(255,20,0)" />
<line x1="181" y1="205" x2="169" y2="215" stroke="rgb(255,20,0)" />
<line x1="192" y1="193" x2="181" y2="205" stroke="rgb(255,20,0)" />
<line x1="192" y1="193" x2="203" y2="194" stroke="rgb(255,20,0)" />
<line x1="203" y1="194" x2="192" y2="193" stroke="rgb(255,20,0)" />
<line x1="203" y1="194" x2="178" y2="169" stroke="rgb(255,20,0)" />
<line x1="203" y1="194" x2="219" y2="208" stroke="rgb(255,20,0)" />
<line x1="219" y1="208" x2="247" y2="234" stroke="rgb(255,20,0)" />
<line x1="219" y1="208" x2="203" y2="194" stroke="rgb(255,20,0)" />
<line x1="247" y1="234" x2="281" y2="236" stroke="rgb(255,20,0)" />
<line x1="247" y1="234" x2="219" y2="208" stroke="rgb(255,20,0)" />
<line x1="281" y1="236" x2="247" y2="234" stroke="rgb(255,20,0)" />
<line x1="281" y1="236" x2="331" y2="258" stroke="rgb(255,20,0)" />
<line x1="281" y1="236" x2="280" y2="229" stroke="rgb(255,20,0)" />
<line x1="331" y1="258" x2="281" y2="236" stroke="rgb(255,20,0)" />
<line x1="331" y1="258" x2="352" y2="286" stroke="rgb(255,20,0)" />
<line x1="331" y1="258" x2="336" y2="204" stroke="rgb(255,20,0)" />
<line x1="331" y1="258" x2="312" y2="309" stroke="rgb(255,20,0)" />
<line x1="331" y1="258" x2="331" y2="258" stroke="rgb(255,20,0)" />
<line x1="331" y1="258" x2="331" y2="258" stroke="rgb(255,20,0)" />
<line x1="352" y1="286" x2="331" y2="258" stroke="rgb(255,20,0)" />
<line x1="352" y1="286" x2="393" y2="278" stroke="rgb(255,20,0)" />
<line x1="352" y1="286" x2="352" y2="286" stroke="rgb(255,20,0)" />
<line x1="352" y1="286" x2="393" y2="354" stroke="rgb(255,20,0)" />
<line x1="393" y1="278" x2="352" y2="286" stroke="rgb(255,20,0)" />
<line x1="393" y1="278" x2="428" y2="278" stroke="rgb(255,20,0)" />
<line x1="428" y1="278" x2="465" y2="262" stroke="rgb(255,20,0)" />
<line x1="428" y1="278" x2="457" y2="290" stroke="rgb(255,20,0)" />
<line x1="428" y1="278" x2="393" y2="278" stroke="rgb(255,20,0)" />
<line x1="465" y1="262" x2="428" y2="278" stroke="rgb(255,20,0)" />
<line x1="465" y1="262" x2="485" y2="262" stroke="rgb(255,20,0)" />
<line x1="485" y1="262" x2="465" y2="262" stroke="rgb(255,20,0)" />
<line x1="485" y1="262" x2="506" y2="269" stroke="rgb(255,20,0)" />
<line x1="506" y1="269" x2="522" y2="279" stroke="rgb(255,20,0)" />
<line x1="506" y1="269" x2="485" y2="262" stroke="rgb(255,20,0)" />
<line x1="522" y1="279" x2="556" y2="276" stroke="rgb(255,20,0)" />
<line x1="522" y1="279" x2="506" y2="269" stroke="rgb(255,20,0)" />
<line x1="556" y1="276" x2="522" y2="279" stroke="rgb(255,20,0)" />
<line x1="556" y1="276" x2="593" y2="275" stroke="rgb(255,20,0)" />
<line x1="593" y1="275" x2="623" y2="275" stroke="rgb(255,20,0)" />
<line x1="593" y1="275" x2="556" y2="276" stroke="rgb(255,20,0)" />
<line x1="623" y1="275" x2="647" y2="261" stroke="rgb(255,20,0)" />
<line x1="623" y1="275" x2="593" y2="275" stroke="rgb(255,20,0)" />
<line x1="647" y1="261" x2="623" y2="275" stroke="rgb(255,20,0)" />
<line x1="647" y1="261" x2="657" y2="248" stroke="rgb(255,20,0)" />
<line x1="657" y1="248" x2="647" y2="261" stroke="rgb(255,20,0)" />
<line x1="657" y1="248" x2="670" y2="237" stroke="rgb(255,20,0)" />
<line x1="670" y1="237" x2="657" y2="248" stroke="rgb(255,20,0)" />
<line x1="670" y1="237" x2="682" y2="226" stroke="rgb(255,20,0)" />
<line x1="682" y1="226" x2="670" y2="237" stroke="rgb(255,20,0)" />
<line x1="457" y1="290" x2="457" y2="310" stroke="rgb(255,20,0)" />
<line x1="457" y1="290" x2="428" y2="278" stroke="rgb(255,20,0)" />
<line x1="457" y1="310" x2="457" y2="322" stroke="rgb(255,20,0)" />
<line x1="457" y1="310" x2="457" y2="290" stroke="rgb(255,20,0)" />
<line x1="457" y1="322" x2="457" y2="310" stroke="rgb(255,20,0)" />
<line x1="457" y1="322" x2="462" y2="338" stroke="rgb(255,20,0)" />
<line x1="462" y1="338" x2="457" y2="322" stroke="rgb(255,20,0)" />
<line x1="462" y1="338" x2="480" y2="348" stroke="rgb(255,20,0)" />
<line x1="480" y1="348" x2="462" y2="338" stroke="rgb(255,20,0)" />
<line x1="480" y1="348" x2="499" y2="345" stroke="rgb(255,20,0)" />
<line x1="499" y1="345" x2="503" y2="363" stroke="rgb(255,20,0)" />
<line x1="499" y1="345" x2="480" y2="348" stroke="rgb(255,20,0)" />
<line x1="503" y1="363" x2="499" y2="345" stroke="rgb(255,20,0)" />
<line x1="503" y1="363" x2="505" y2="381" stroke="rgb(255,20,0)" />
<line x1="505" y1="381" x2="503" y2="363" stroke="rgb(255,20,0)" />
<line x1="531" y1="90" x2="499" y2="89" stroke="rgb(60,140,220)" />
<line x1="499" y1="89" x2="531" y2="90" stroke="rgb(60,140,220)" />
<line x1="499" y1="89" x2="479" y2="101" stroke="rgb(60,140,220)" />
<line x1="479" y1="101" x2="487" y2="122" stroke="rgb(60,140,220)" />
<line x1="479" y1="101" x2="499" y2="89" stroke="rgb(60,140,220)" />
<line x1="487" y1="122" x2="479" y2="101" stroke="rgb(60,140,220)" />
<line x1="487" y1="122" x2="502" y2="138" stroke="rgb(60,140,220)" />
<line x1="502" y1="138" x2="487" y2="122" stroke="rgb(60,140,220)" />
<line x1="502" y1="138" x2="480" y2="154" stroke="rgb(60,140,220)" />
<line x1="586" y1="132" x2="570" y2="149" stroke="rgb(60,140,220)" />
<line x1="570" y1="149" x2="586" y2="132" stroke="rgb(60,140,220)" />
<line x1="570" y1="149" x2="545" y2="155" stroke="rgb(60,140,220)" />
<line x1="545" y1="155" x2="570" y2="149" stroke="rgb(60,140,220)" />
<line x1="545" y1="155" x2="514" y2="155" stroke="rgb(60,140,220)" />
<line x1="514" y1="155" x2="545" y2="155" stroke="rgb(60,140,220)" />
<line x1="514" y1="155" x2="480" y2="154" stroke="rgb(60,140,220)" />
<line x1="480" y1="154" x2="514" y2="155" stroke="rgb(60,140,220)" />
<line x1="480" y1="154" x2="502" y2="138" stroke="rgb(60,140,220)" />
<line x1="480" y1="154" x2="449" y2="155" stroke="rgb(60,140,220)" />
<line x1="449" y1="155" x2="480" y2="154" stroke="rgb(60,140,220)" />
<line x1="449" y1="155" x2="431" y2="166" stroke="rgb(60,140,220)" />
<line x1="431" y1="166" x2="449" y2="155" stroke="rgb(60,140,220)" />
<line x1="431" y1="166" x2="400" y2="166" stroke="rgb(60,140,220)" />
<line x1="400" y1="166" x2="431" y2="166" stroke="rgb(60,140,220)" />
<line x1="400" y1="166" x2="374" y2="165" stroke="rgb(60,140,220)" />
<line x1="374" y1="165" x2="400" y2="166" stroke="rgb(60,140,220)" />
<line x1="374" y1="165" x2="343" y2="177" stroke="rgb(60,140,220)" />
<line x1="343" y1="177" x2="336" y2="204" stroke="rgb(60,140,220)" />
<line x1="343" y1="177" x2="374" y2="165" stroke="rgb(60,140,220)" />
<line x1="336" y1="204" x2="331" y2="258" stroke="rgb(60,140,220)" />
<line x1="336" y1="204" x2="343" y2="177" stroke="rgb(60,140,220)" />
<line x1="336" y1="204" x2="329" y2="153" stroke="rgb(60,140,220)" />
<line x1="336" y1="204" x2="336" y2="204" stroke="rgb(60,140,220)" />
<line x1="331" y1="258" x2="331" y2="258" stroke="rgb(60,140,220)" />
<line x1="312" y1="309" x2="331" y2="258" stroke="rgb(60,140,220)" />
<line x1="312" y1="309" x2="311" y2="319" stroke="rgb(60,140,220)" />
<line x1="312" y1="309" x2="318" y2="276" stroke="rgb(60,140,220)" />
<line x1="312" y1="309" x2="312" y2="309" stroke="rgb(60,140,220)" />
<line x1="312" y1="309" x2="370" y2="324" stroke="rgb(60,140,220)" />
<line x1="311" y1="319" x2="312" y2="309" stroke="rgb(60,140,220)" />
<line x1="311" y1="319" x2="311" y2="326" stroke="rgb(60,140,220)" />
<line x1="311" y1="326" x2="311" y2="335" stroke="rgb(60,140,220)" />
<line x1="311" y1="326" x2="311" y2="319" stroke="rgb(60,140,220)" />
<line x1="311" y1="335" x2="311" y2="326" stroke="rgb(60,140,220)" />
<line x1="311" y1="335" x2="311" y2="341" stroke="rgb(60,140,220)" />
<line x1="311" y1="341" x2="311" y2="335" stroke="rgb(60,140,220)" />
<line x1="311" y1="341" x2="311" y2="351" stroke="rgb(60,140,220)" />
<line x1="311" y1="351" x2="311" y2="359" stroke="rgb(60,140,220)" />
<line x1="311" y1="351" x2="311" y2="341" stroke="rgb(60,140,220)" />
<line x1="311" y1="359" x2="310" y2="370" stroke="rgb(60,140,220)" />
<line x1="311" y1="359" x2="311" y2="351" stroke="rgb(60,140,220)" />
<line x1="310" y1="370" x2="311" y2="359" stroke="rgb(60,140,220)" />
<line x1="310" y1="370" x2="309" y2="381" stroke="rgb(60,140,220)" />
<line x1="309" y1="381" x2="310" y2="370" stroke="rgb(60,140,220)" />
<line x1="309" y1="381" x2="287" y2="381" stroke="rgb(60,140,220)" />
<line x1="287" y1="381" x2="291" y2="409" stroke="rgb(60,140,220)" />
<line x1="287" y1="381" x2="258" y2="383" stroke="rgb(60,140,220)" />
<line x1="287" y1="381" x2="309" y2="381" stroke="rgb(60,140,220)" />
<line x1="258" y1="383" x2="287" y2="381" stroke="rgb(60,140,220)" />
<line x1="258" y1="383" x2="228" y2="397" stroke="rgb(60,140,220)" />
<line x1="228" y1="397" x2="258" y2="383" stroke="rgb(60,140,220)" />
<line x1="228" y1="397" x2="190" y2="400" stroke="rgb(60,140,220)" />
<line x1="190" y1="400" x2="228" y2="397" stroke="rgb(60,140,220)" />
<line x1="291" y1="409" x2="281" y2="419" stroke="rgb(60,140,220)" />
<line x1="291" y1="409" x2="287" y2="381" stroke="rgb(60,140,220)" />
<line x1="281" y1="419" x2="291" y2="409" stroke="rgb(60,140,220)" />
<line x1="281" y1="419" x2="270" y2="433" stroke="rgb(60,140,220)" />
<line x1="270" y1="433" x2="281" y2="419" stroke="rgb(60,140,220)" />
<line x1="270" y1="433" x2="260" y2="440" stroke="rgb(60,140,220)" />
<line x1="260" y1="440" x2="242" y2="458" stroke="rgb(60,140,220)" />
<line x1="260" y1="440" x2="270" y2="433" stroke="rgb(60,140,220)" />
<line x1="242" y1="458" x2="231" y2="472" stroke="rgb(60,140,220)" />
<line x1="242" y1="458" x2="260" y2="440" stroke="rgb(60,140,220)" />
<line x1="231" y1="472" x2="242" y2="458" stroke="rgb(60,140,220)" />
<line x1="231" y1="472" x2="220" y2="484" stroke="rgb(60,140,220)" />
<line x1="220" y1="484" x2="208" y2="491" stroke="rgb(60,140,220)" />
<line x1="220" y1="484" x2="231" y2="472" stroke="rgb(60,140,220)" />
<line x1="220" y1="484" x2="231" y2="473" stroke="rgb(60,140,220)" />
<line x1="220" y1="484" x2="298" y2="524" stroke="rgb(60,140,220)" />
<line x1="220" y1="484" x2="264" y2="445" stroke="rgb(60,140,220)" />
<line x1="220" y1="484" x2="220" y2="484" stroke="rgb(60,140,220)" />
<line x1="208" y1="491" x2="191" y2="496" stroke="rgb(60,140,220)" />
<line x1="208" y1="491" x2="220" y2="484" stroke="rgb(60,140,220)" />
<line x1="191" y1="496" x2="208" y2="491" stroke="rgb(60,140,220)" />
<line x1="191" y1="496" x2="173" y2="498" stroke="rgb(60,140,220)" />
<line x1="173" y1="498" x2="191" y2="496" stroke="rgb(60,140,220)" />
<line x1="173" y1="498" x2="153" y2="497" stroke="rgb(60,140,220)" />
<line x1="153" y1="497" x2="173" y2="498" stroke="rgb(60,140,220)" />
<line x1="153" y1="497" x2="136" y2="509" stroke="rgb(60,140,220)" />
<line x1="136" y1="509" x2="123" y2="520" stroke="rgb(60,140,220)" />
<line x1="136" y1="509" x2="153" y2="497" stroke="rgb(60,140,220)" />
<line x1="123" y1="520" x2="110" y2="531" stroke="rgb(60,140,220)" />
<line x1="123" y1="520" x2="136" y2="509" stroke="rgb(60,140,220)" />
<line x1="110" y1="531" x2="123" y2="520" stroke="rgb(60,140,220)" />
<line x1="110" y1="531" x2="89" y2="532" stroke="rgb(60,140,220)" />
<line x1="89" y1="532" x2="110" y2="531" stroke="rgb(60,140,220)" />
<line x1="89" y1="532" x2="69" y2="532" stroke="rgb(60,140,220)" />
<line x1="69" y1="532" x2="89" y2="532" stroke="rgb(60,140,220)" />
<line x1="168" y1="48" x2="179" y2="60" stroke="rgb(220,150,0)" />
<line x1="179" y1="60" x2="168" y2="48" stroke="rgb(220,150,0)" />
<line x1="179" y1="60" x2="189" y2="72" stroke="rgb(220,150,0)" />
<line x1="189" y1="72" x2="179" y2="60" stroke="rgb(220,150,0)" />
<line x1="189" y1="72" x2="201" y2="83" stroke="rgb(220,150,0)" />
<line x1="201" y1="83" x2="212" y2="94" stroke="rgb(220,150,0)" />
<line x1="201" y1="83" x2="189" y2="72" stroke="rgb(220,150,0)" />
<line x1="212" y1="94" x2="226" y2="104" stroke="rgb(220,150,0)" />
<line x1="212" y1="94" x2="201" y2="83" stroke="rgb(220,150,0)" />
<line x1="226" y1="104" x2="212" y2="94" stroke="rgb(220,150,0)" />
<line x1="226" y1="104" x2="236" y2="115" stroke="rgb(220,150,0)" />
<line x1="236" y1="115" x2="226" y2="104" stroke="rgb(220,150,0)" />
<line x1="236" y1="115" x2="246" y2="127" stroke="rgb(220,150,0)" />
<line x1="246" y1="127" x2="236" y2="115" stroke="rgb(220,150,0)" />
<line x1="246" y1="127" x2="258" y2="135" stroke="rgb(220,150,0)" />
<line x1="258" y1="135" x2="246" y2="127" stroke="rgb(220,150,0)" />
<line x1="258" y1="135" x2="271" y2="149" stroke="rgb(220,150,0)" />
<line x1="271" y1="149" x2="258" y2="135" stroke="rgb(220,150,0)" />
<line x1="271" y1="149" x2="282" y2="164" stroke="rgb(220,150,0)" />
<line x1="282" y1="164" x2="271" y2="149" stroke="rgb(220,150,0)" />
<line x1="282" y1="164" x2="286" y2="179" stroke="rgb(220,150,0)" />
<line x1="286" y1="179" x2="285" y2="200" stroke="rgb(220,150,0)" />
<line x1="286" y1="179" x2="282" y2="164" stroke="rgb(220,150,0)" />
<line x1="285" y1="200" x2="286" y2="179" stroke="rgb(220,150,0)" />
<line x1="285" y1="200" x2="276" y2="214" stroke="rgb(220,150,0)" />
<line x1="276" y1="214" x2="260" y2="239" stroke="rgb(220,150,0)" />
<line x1="276" y1="214" x2="285" y2="200" stroke="rgb(220,150,0)" />
<line x1="260" y1="239" x2="276" y2="214" stroke="rgb(220,150,0)" />
<line x1="260" y1="239" x2="232" y2="254" stroke="rgb(220,150,0)" />
<line x1="232" y1="254" x2="260" y2="239" stroke="rgb(220,150,0)" />
<line x1="232" y1="254" x2="223" y2="268" stroke="rgb(220,150,0)" />
<line x1="223" y1="268" x2="223" y2="278" stroke="rgb(220,150,0)" />
<line x1="223" y1="268" x2="232" y2="254" stroke="rgb(220,150,0)" />
<line x1="223" y1="278" x2="223" y2="268" stroke="rgb(220,150,0)" />
<line x1="223" y1="278" x2="222" y2="292" stroke="rgb(220,150,0)" />
<line x1="222" y1="292" x2="232" y2="300" stroke="rgb(220,150,0)" />
<line x1="222" y1="292" x2="223" y2="278" stroke="rgb(220,150,0)" />
<line x1="232" y1="300" x2="255" y2="282" stroke="rgb(220,150,0)" />
<line x1="232" y1="300" x2="222" y2="292" stroke="rgb(220,150,0)" />
<line x1="56" y1="396" x2="76" y2="404" stroke="rgb(220,150,0)" />
<line x1="76" y1="404" x2="56" y2="396" stroke="rgb(220,150,0)" />
<line x1="76" y1="404" x2="116" y2="382" stroke="rgb(220,150,0)" />
<line x1="116" y1="382" x2="76" y2="404" stroke="rgb(220,150,0)" />
<line x1="116" y1="382" x2="184" y2="366" stroke="rgb(220,150,0)" />
<line x1="116" y1="382" x2="179" y2="424" stroke="rgb(220,150,0)" />
<line x1="152" y1="380" x2="153" y2="378" stroke="rgb(220,150,0)" />
<line x1="153" y1="378" x2="184" y2="366" stroke="rgb(220,150,0)" />
<line x1="153" y1="378" x2="152" y2="380" stroke="rgb(220,150,0)" />
<line x1="184" y1="366" x2="195" y2="355" stroke="rgb(220,150,0)" />
<line x1="184" y1="366" x2="116" y2="382" stroke="rgb(220,150,0)" />
<line x1="184" y1="366" x2="153" y2="378" stroke="rgb(220,150,0)" />
<line x1="195" y1="355" x2="227" y2="348" stroke="rgb(220,150,0)" />
<line x1="195" y1="355" x2="184" y2="366" stroke="rgb(220,150,0)" />
<line x1="212" y1="356" x2="237" y2="333" stroke="rgb(220,150,0)" />
<line x1="227" y1="348" x2="195" y2="355" stroke="rgb(220,150,0)" />
<line x1="227" y1="348" x2="241" y2="320" stroke="rgb(220,150,0)" />
<line x1="237" y1="333" x2="241" y2="306" stroke="rgb(220,150,0)" />
<line x1="237" y1="333" x2="212" y2="356" stroke="rgb(220,150,0)" />
<line x1="241" y1="320" x2="227" y2="348" stroke="rgb(220,150,0)" />
<line x1="241" y1="320" x2="243" y2="288" stroke="rgb(220,150,0)" />
<line x1="241" y1="306" x2="237" y2="333" stroke="rgb(220,150,0)" />
<line x1="241" y1="306" x2="255" y2="282" stroke="rgb(220,150,0)" />
<line x1="243" y1="288" x2="255" y2="282" stroke="rgb(220,150,0)" />
<line x1="243" y1="288" x2="241" y2="320" stroke="rgb(220,150,0)" />
<line x1="255" y1="282" x2="241" y2="306" stroke="rgb(220,150,0)" />
<line x1="255" y1="282" x2="262" y2="276" stroke="rgb(220,150,0)" />
<line x1="255" y1="282" x2="232" y2="300" stroke="rgb(220,150,0)" />
<line x1="255" y1="282" x2="243" y2="288" stroke="rgb(220,150,0)" />
<line x1="262" y1="276" x2="275" y2="272" stroke="rgb(220,150,0)" />
<line x1="262" y1="276" x2="255" y2="282" stroke="rgb(220,150,0)" />
<line x1="275" y1="272" x2="262" y2="276" stroke="rgb(220,150,0)" />
<line x1="275" y1="272" x2="318" y2="276" stroke="rgb(220,150,0)" />
<line x1="318" y1="276" x2="312" y2="309" stroke="rgb(220,150,0)" />
<line x1="318" y1="276" x2="275" y2="272" stroke="rgb(220,150,0)" />
<line x1="312" y1="309" x2="312" y2="309" stroke="rgb(220,150,0)" />
<line x1="370" y1="324" x2="312" y2="309" stroke="rgb(220,150,0)" />
<line x1="370" y1="324" x2="380" y2="349" stroke="rgb(220,150,0)" />
<line x1="380" y1="349" x2="370" y2="324" stroke="rgb(220,150,0)" />
<line x1="380" y1="349" x2="380" y2="363" stroke="rgb(220,150,0)" />
<line x1="380" y1="363" x2="380" y2="349" stroke="rgb(220,150,0)" />
<line x1="380" y1="363" x2="379" y2="381" stroke="rgb(220,150,0)" />
<line x1="379" y1="381" x2="380" y2="363" stroke="rgb(220,150,0)" />
<line x1="379" y1="381" x2="380" y2="404" stroke="rgb(220,150,0)" />
<line x1="380" y1="404" x2="379" y2="381" stroke="rgb(220,150,0)" />
<line x1="380" y1="404" x2="381" y2="471" stroke="rgb(220,150,0)" />
<line x1="179" y1="424" x2="116" y2="382" stroke="rgb(220,150,0)" />
<line x1="179" y1="424" x2="189" y2="435" stroke="rgb(220,150,0)" />
<line x1="189" y1="435" x2="179" y2="424" stroke="rgb(220,150,0)" />
<line x1="189" y1="435" x2="202" y2="446" stroke="rgb(220,150,0)" />
<line x1="202" y1="446" x2="215" y2="458" stroke="rgb(220,150,0)" />
<line x1="202" y1="446" x2="189" y2="435" stroke="rgb(220,150,0)" />
<line x1="215" y1="458" x2="231" y2="473" stroke="rgb(220,150,0)" />
<line x1="215" y1="458" x2="202" y2="446" stroke="rgb(220,150,0)" />
<line x1="231" y1="473" x2="220" y2="484" stroke="rgb(220,150,0)" />
<line x1="231" y1="473" x2="215" y2="458" stroke="rgb(220,150,0)" />
<line x1="220" y1="484" x2="220" y2="484" stroke="rgb(220,150,0)" />
<line x1="264" y1="445" x2="220" y2="484" stroke="rgb(220,150,0)" />
<line x1="264" y1="445" x2="280" y2="430" stroke="rgb(220,150,0)" />
<line x1="280" y1="430" x2="264" y2="445" stroke="rgb(220,150,0)" />
<line x1="280" y1="430" x2="315" y2="427" stroke="rgb(220,150,0)" />
<line x1="315" y1="427" x2="280" y2="430" stroke="rgb(220,150,0)" />
<line x1="315" y1="427" x2="345" y2="426" stroke="rgb(220,150,0)" />
<line x1="345" y1="426" x2="374" y2="413" stroke="rgb(220,150,0)" />
<line x1="345" y1="426" x2="315" y2="427" stroke="rgb(220,150,0)" />
<line x1="374" y1="413" x2="345" y2="426" stroke="rgb(220,150,0)" />
<line x1="374" y1="413" x2="381" y2="437" stroke="rgb(220,150,0)" />
<line x1="381" y1="437" x2="374" y2="413" stroke="rgb(220,150,0)" />
<line x1="381" y1="437" x2="381" y2="471" stroke="rgb(220,150,0)" />
<line x1="381" y1="453" x2="381" y2="458" stroke="rgb(220,150,0)" />
<line x1="381" y1="453" x2="381" y2="471" stroke="rgb(220,150,0)" />
<line x1="381" y1="471" x2="380" y2="404" stroke="rgb(220,150,0)" />
<line x1="381" y1="471" x2="381" y2="453" stroke="rgb(220,150,0)" />
<line x1="381" y1="471" x2="381" y2="437" stroke="rgb(220,150,0)" />
<line x1="381" y1="458" x2="381" y2="458" stroke="rgb(220,150,0)" />
<line x1="381" y1="458" x2="381" y2="453" stroke="rgb(220,150,0)" />
<line x1="381" y1="458" x2="301" y2="541" stroke="rgb(220,150,0)" />
<line x1="381" y1="458" x2="381" y2="458" stroke="rgb(220,150,0)" />
<line x1="298" y1="524" x2="220" y2="484" stroke="rgb(220,150,0)" />
<line x1="298" y1="524" x2="301" y2="541" stroke="rgb(220,150,0)" />
<line x1="301" y1="541" x2="298" y2="524" stroke="rgb(220,150,0)" />
<line x1="301" y1="541" x2="381" y2="458" stroke="rgb(220,150,0)" />
<line x1="301" y1="541" x2="309" y2="577" stroke="rgb(220,150,0)" />
<line x1="335" y1="541" x2="319" y2="552" stroke="rgb(220,150,0)" />
<line x1="319" y1="552" x2="309" y2="577" stroke="rgb(220,150,0)" />
<line x1="319" y1="552" x2="335" y2="541" stroke="rgb(220,150,0)" />
<line x1="309" y1="577" x2="301" y2="541" stroke="rgb(220,150,0)" />
<line x1="309" y1="577" x2="309" y2="595" stroke="rgb(220,150,0)" />
<line x1="309" y1="577" x2="319" y2="552" stroke="rgb(220,150,0)" />
<line x1="309" y1="595" x2="309" y2="577" stroke="rgb(220,150,0)" />
<line x1="309" y1="595" x2="299" y2="611" stroke="rgb(220,150,0)" />
<line x1="299" y1="611" x2="274" y2="620" stroke="rgb(220,150,0)" />
<line x1="299" y1="611" x2="309" y2="595" stroke="rgb(220,150,0)" />
<line x1="274" y1="620" x2="245" y2="620" stroke="rgb(220,150,0)" />
<line x1="274" y1="620" x2="299" y2="611" stroke="rgb(220,150,0)" />
<line x1="245" y1="620" x2="215" y2="619" stroke="rgb(220,150,0)" />
<line x1="245" y1="620" x2="274" y2="620" stroke="rgb(220,150,0)" />
<line x1="215" y1="619" x2="179" y2="619" stroke="rgb(220,150,0)" />
<line x1="215" y1="619" x2="245" y2="620" stroke="rgb(220,150,0)" />
<line x1="179" y1="619" x2="215" y2="619" stroke="rgb(220,150,0)" />
<line x1="179" y1="619" x2="143" y2="620" stroke="rgb(220,150,0)" />
<line x1="143" y1="620" x2="179" y2="619" stroke="rgb(220,150,0)" />
<line x1="143" y1="620" x2="108" y2="620" stroke="rgb(220,150,0)" />
<line x1="108" y1="620" x2="69" y2="619" stroke="rgb(220,150,0)" />
<line x1="108" y1="620" x2="143" y2="620" stroke="rgb(220,150,0)" />
<line x1="69" y1="619" x2="108" y2="620" stroke="rgb(220,150,0)" />
<line x1="69" y1="619" x2="31" y2="619" stroke="rgb(220,150,0)" />
<line x1="31" y1="619" x2="69" y2="619" stroke="rgb(220,150,0)" />
<line x1="424" y1="-1" x2="424" y2="6" stroke="rgb(0,150,65)" />
<line x1="424" y1="6" x2="424" y2="-1" stroke="rgb(0,150,65)" />
<line x1="424" y1="6" x2="424" y2="22" stroke="rgb(0,150,65)" />
<line x1="424" y1="22" x2="424" y2="41" stroke="rgb(0,150,65)" />
<line x1="424" y1="22" x2="424" y2="6" stroke="rgb(0,150,65)" />
<line x1="424" y1="41" x2="418" y2="59" stroke="rgb(0,150,65)" />
<line x1="424" y1="41" x2="424" y2="22" stroke="rgb(0,150,65)" />
<line x1="418" y1="59" x2="424" y2="41" stroke="rgb(0,150,65)" />
<line x1="418" y1="59" x2="403" y2="75" stroke="rgb(0,150,65)" />
<line x1="403" y1="75" x2="418" y2="59" stroke="rgb(0,150,65)" />
<line x1="403" y1="75" x2="386" y2="93" stroke="rgb(0,150,65)" />
<line x1="386" y1="93" x2="403" y2="75" stroke="rgb(0,150,65)" />
<line x1="386" y1="93" x2="366" y2="109" stroke="rgb(0,150,65)" />
<line x1="366" y1="109" x2="386" y2="93" stroke="rgb(0,150,65)" />
<line x1="366" y1="109" x2="352" y2="123" stroke="rgb(0,150,65)" />
<line x1="352" y1="123" x2="366" y2="109" stroke="rgb(0,150,65)" />
<line x1="352" y1="123" x2="329" y2="153" stroke="rgb(0,150,65)" />
<line x1="329" y1="153" x2="336" y2="204" stroke="rgb(0,150,65)" />
<line x1="329" y1="153" x2="352" y2="123" stroke="rgb(0,150,65)" />
<line x1="336" y1="204" x2="336" y2="204" stroke="rgb(0,150,65)" />
<line x1="331" y1="258" x2="331" y2="258" stroke="rgb(0,150,65)" />
<line x1="352" y1="286" x2="352" y2="286" stroke="rgb(0,150,65)" />
<line x1="393" y1="354" x2="352" y2="286" stroke="rgb(0,150,65)" />
<line x1="393" y1="354" x2="393" y2="371" stroke="rgb(0,150,65)" />
<line x1="393" y1="371" x2="393" y2="354" stroke="rgb(0,150,65)" />
<line x1="393" y1="371" x2="392" y2="388" stroke="rgb(0,150,65)" />
<line x1="392" y1="388" x2="393" y2="371" stroke="rgb(0,150,65)" />
<line x1="392" y1="388" x2="392" y2="398" stroke="rgb(0,150,65)" />
<line x1="392" y1="398" x2="392" y2="388" stroke="rgb(0,150,65)" />
<line x1="392" y1="398" x2="392" y2="423" stroke="rgb(0,150,65)" />
<line x1="392" y1="423" x2="392" y2="398" stroke="rgb(0,150,65)" />
<line x1="392" y1="423" x2="392" y2="444" stroke="rgb(0,150,65)" />
<line x1="392" y1="444" x2="388" y2="489" stroke="rgb(0,150,65)" />
<line x1="392" y1="444" x2="409" y2="474" stroke="rgb(0,150,65)" />
<line x1="392" y1="444" x2="392" y2="423" stroke="rgb(0,150,65)" />
<line x1="409" y1="474" x2="392" y2="444" stroke="rgb(0,150,65)" />
<line x1="409" y1="474" x2="425" y2="492" stroke="rgb(0,150,65)" />
<line x1="425" y1="492" x2="444" y2="508" stroke="rgb(0,150,65)" />
<line x1="425" y1="492" x2="409" y2="474" stroke="rgb(0,150,65)" />
<line x1="444" y1="508" x2="458" y2="526" stroke="rgb(0,150,65)" />
<line x1="444" y1="508" x2="425" y2="492" stroke="rgb(0,150,65)" />
<line x1="458" y1="526" x2="444" y2="508" stroke="rgb(0,150,65)" />
<line x1="458" y1="526" x2="475" y2="543" stroke="rgb(0,150,65)" />
<line x1="475" y1="543" x2="458" y2="526" stroke="rgb(0,150,65)" />
<line x1="475" y1="543" x2="497" y2="562" stroke="rgb(0,150,65)" />
<line x1="497" y1="562" x2="475" y2="543" stroke="rgb(0,150,65)" />
<line x1="497" y1="562" x2="508" y2="577" stroke="rgb(0,150,65)" />
<line x1="508" y1="577" x2="497" y2="562" stroke="rgb(0,150,65)" />
<line x1="508" y1="577" x2="526" y2="594" stroke="rgb(0,150,65)" />
<line x1="526" y1="594" x2="560" y2="629" stroke="rgb(0,150,65)" />
<line x1="526" y1="594" x2="508" y2="577" stroke="rgb(0,150,65)" />
<line x1="560" y1="629" x2="526" y2="594" stroke="rgb(0,150,65)" />
<line x1="388" y1="489" x2="367" y2="512" stroke="rgb(0,150,65)" />
<line x1="388" y1="489" x2="392" y2="444" stroke="rgb(0,150,65)" />
<line x1="367" y1="512" x2="388" y2="489" stroke="rgb(0,150,65)" />
<line x1="367" y1="512" x2="382" y2="532" stroke="rgb(0,150,65)" />
<line x1="382" y1="532" x2="412" y2="561" stroke="rgb(0,150,65)" />
<line x1="382" y1="532" x2="367" y2="512" stroke="rgb(0,150,65)" />
<line x1="412" y1="561" x2="382" y2="532" stroke="rgb(0,150,65)" />
<line x1="412" y1="561" x2="428" y2="577" stroke="rgb(0,150,65)" />
<line x1="428" y1="577" x2="441" y2="609" stroke="rgb(0,150,65)" />
<line x1="428" y1="577" x2="412" y2="561" stroke="rgb(0,150,65)" />
<line x1="441" y1="609" x2="454" y2="616" stroke="rgb(0,150,65)" />
<line x1="441" y1="609" x2="428" y2="577" stroke="rgb(0,150,65)" />
<line x1="441" y1="609" x2="440" y2="630" stroke="rgb(0,150,65)" />
<line x1="440" y1="630" x2="441" y2="609" stroke="rgb(0,150,65)" />
<line x1="440" y1="630" x2="452" y2="646" stroke="rgb(0,150,65)" />
<line x1="452" y1="646" x2="492" y2="670" stroke="rgb(0,150,65)" />
<line x1="452" y1="646" x2="440" y2="630" stroke="rgb(0,150,65)" />
<line x1="492" y1="670" x2="528" y2="634" stroke="rgb(0,150,65)" />
<line x1="492" y1="670" x2="452" y2="646" stroke="rgb(0,150,65)" />
<line x1="528" y1="634" x2="492" y2="670" stroke="rgb(0,150,65)" />
<line x1="528" y1="634" x2="560" y2="627" stroke="rgb(0,150,65)" />
<line x1="560" y1="627" x2="528" y2="634" stroke="rgb(0,150,65)" />
<line x1="454" y1="616" x2="441" y2="609" stroke="rgb(0,150,65)" />
<line x1="454" y1="616" x2="416" y2="640" stroke="rgb(0,150,65)" />
<line x1="416" y1="640" x2="454" y2="616" stroke="rgb(0,150,65)" />
<line x1="416" y1="640" x2="405" y2="652" stroke="rgb(0,150,65)" />
<line x1="405" y1="652" x2="416" y2="640" stroke="rgb(0,150,65)" />
<line x1="405" y1="652" x2="395" y2="660" stroke="rgb(0,150,65)" />
<line x1="395" y1="660" x2="393" y2="668" stroke="rgb(0,150,65)" />
<line x1="395" y1="660" x2="405" y2="652" stroke="rgb(0,150,65)" />
<line x1="393" y1="668" x2="395" y2="660" stroke="rgb(0,150,65)" />
<line x1="393" y1="668" x2="393" y2="680" stroke="rgb(0,150,65)" />
<line x1="393" y1="680" x2="393" y2="668" stroke="rgb(0,150,65)" />
<line x1="393" y1="680" x2="391" y2="705" stroke="rgb(0,150,65)" />
<line x1="391" y1="705" x2="393" y2="680" stroke="rgb(0,150,65)" />
<line x1="391" y1="705" x2="390" y2="714" stroke="rgb(0,150,65)" />
<line x1="390" y1="714" x2="391" y2="705" stroke="rgb(220,90,180)" />
<line x1="280" y1="229" x2="281" y2="236" stroke="rgb(220,90,180)" />
<line x1="280" y1="229" x2="343" y2="211" stroke="rgb(220,90,180)" />
<line x1="343" y1="211" x2="280" y2="229" stroke="rgb(220,90,180)" />
<line x1="343" y1="211" x2="343" y2="211" stroke="rgb(220,90,180)" />
<line x1="343" y1="211" x2="343" y2="211" stroke="rgb(220,90,180)" />
<line x1="343" y1="211" x2="397" y2="201" stroke="rgb(220,90,180)" />
<line x1="397" y1="201" x2="429" y2="199" stroke="rgb(220,90,180)" />
<line x1="397" y1="201" x2="343" y2="211" stroke="rgb(220,90,180)" />
<line x1="397" y1="201" x2="435" y2="230" stroke="rgb(220,90,180)" />
<line x1="429" y1="199" x2="397" y2="201" stroke="rgb(220,90,180)" />
<line x1="429" y1="199" x2="435" y2="205" stroke="rgb(220,90,180)" />
<line x1="435" y1="205" x2="429" y2="199" stroke="rgb(220,90,180)" />
<line x1="435" y1="205" x2="464" y2="210" stroke="rgb(220,90,180)" />
<line x1="464" y1="210" x2="475" y2="210" stroke="rgb(220,90,180)" />
<line x1="464" y1="210" x2="435" y2="205" stroke="rgb(220,90,180)" />
<line x1="475" y1="210" x2="505" y2="210" stroke="rgb(220,90,180)" />
<line x1="475" y1="210" x2="464" y2="210" stroke="rgb(220,90,180)" />
<line x1="505" y1="210" x2="475" y2="210" stroke="rgb(220,90,180)" />
<line x1="435" y1="230" x2="397" y2="201" stroke="rgb(220,90,180)" />
<line x1="435" y1="230" x2="439" y2="245" stroke="rgb(220,90,180)" />
<line x1="439" y1="245" x2="450" y2="265" stroke="rgb(220,90,180)" />
<line x1="439" y1="245" x2="435" y2="230" stroke="rgb(220,90,180)" />
<line x1="450" y1="265" x2="439" y2="245" stroke="rgb(220,90,180)" />
<line x1="450" y1="265" x2="465" y2="275" stroke="rgb(220,90,180)" />
<line x1="465" y1="275" x2="450" y2="265" stroke="rgb(220,90,180)" />
<line x1="465" y1="275" x2="470" y2="280" stroke="rgb(220,90,180)" />
<line x1="470" y1="280" x2="465" y2="275" stroke="rgb(220,90,180)" />
<line x1="470" y1="280" x2="490" y2="300" stroke="rgb(220,90,180)" />
<line x1="490" y1="300" x2="505" y2="315" stroke="rgb(220,90,180)" />
<line x1="490" y1="300" x2="470" y2="280" stroke="rgb(220,90,180)" />
<line x1="505" y1="315" x2="490" y2="300" stroke="rgb(220,90,180)" />
<line x1="505" y1="315" x2="520" y2="330" stroke="rgb(220,90,180)" />
<line x1="520" y1="330" x2="505" y2="315" stroke="rgb(220,90,180)" />
<line x1="520" y1="330" x2="535" y2="345" stroke="rgb(220,90,180)" />
<line x1="535" y1="345" x2="550" y2="360" stroke="rgb(220,90,180)" />
<line x1="535" y1="345" x2="520" y2="330" stroke="rgb(220,90,180)" />
<line x1="550" y1="360" x2="565" y2="375" stroke="rgb(220,90,180)" />
<line x1="550" y1="360" x2="535" y2="345" stroke="rgb(220,90,180)" />
<line x1="565" y1="375" x2="550" y2="360" stroke="rgb(220,90,180)" />
<text x="121" y="36" fill="rgb(0,0,0)" >Cergy-Le_Haut</text>
<circle cx="111" cy="46" r="8" fill="rgb(255,255,255)" />
<circle cx="111" cy="46" r="6" fill="rgb(0,0,0)" />
<circle cx="124" cy="64" r="4" fill="rgb(0,0,0)" />
<circle cx="122" cy="83" r="4" fill="rgb(0,0,0)" />
<circle cx="123" cy="101" r="4" fill="rgb(0,0,0)" />
<circle cx="129" cy="120" r="4" fill="rgb(0,0,0)" />
<circle cx="140" cy="130" r="4" fill="rgb(0,0,0)" />
<text x="75" y="140" fill="rgb(0,0,0)" >Poissy</text>
<circle cx="65" cy="150" r="8" fill="rgb(255,255,255)" />
<circle cx="65" cy="150" r="6" fill="rgb(0,0,0)" />
<circle cx="100" cy="142" r="4" fill="rgb(0,0,0)" />
<circle cx="156" cy="145" r="4" fill="rgb(0,0,0)" />
<circle cx="168" cy="158" r="4" fill="rgb(0,0,0)" />
<circle cx="178" cy="169" r="4" fill="rgb(0,0,0)" />
<text x="108" y="191" fill="rgb(0,0,0)" >Saint-Germain-en-Laye</text>
<circle cx="98" cy="201" r="8" fill="rgb(255,255,255)" />
<circle cx="98" cy="201" r="6" fill="rgb(0,0,0)" />
<circle cx="111" cy="215" r="4" fill="rgb(0,0,0)" />
<circle cx="123" cy="226" r="4" fill="rgb(0,0,0)" />
<circle cx="139" cy="234" r="4" fill="rgb(0,0,0)" />
<circle cx="169" cy="215" r="4" fill="rgb(0,0,0)" />
<circle cx="181" cy="205" r="4" fill="rgb(0,0,0)" />
<circle cx="192" cy="193" r="4" fill="rgb(0,0,0)" />
<circle cx="203" cy="194" r="4" fill="rgb(0,0,0)" />
<circle cx="219" cy="208" r="4" fill="rgb(0,0,0)" />
<circle cx="247" cy="234" r="4" fill="rgb(0,0,0)" />
<circle cx="281" cy="236" r="4" fill="rgb(0,0,0)" />
<text x="341" y="248" fill="rgb(0,0,0)" >Chatelet-Les_Halles</text>
<circle cx="331" cy="258" r="8" fill="rgb(255,255,255)" />
<circle cx="331" cy="258" r="6" fill="rgb(0,0,0)" />
<text x="362" y="276" fill="rgb(0,0,0)" >Paris_Gare_de_Lyon</text>
<circle cx="352" cy="286" r="8" fill="rgb(255,255,255)" />
<circle cx="352" cy="286" r="6" fill="rgb(0,0,0)" />
<circle cx="393" cy="278" r="4" fill="rgb(0,0,0)" />
<circle cx="428" cy="278" r="4" fill="rgb(0,0,0)" />
<circle cx="465" cy="262" r="4" fill="rgb(0,0,0)" />
<circle cx="485" cy="262" r="4" fill="rgb(0,0,0)" />
<circle cx="506" cy="269" r="4" fill="rgb(0,0,0)" />
<circle cx="522" cy="279" r="4" fill="rgb(0,0,0)" />
<circle cx="556" cy="276" r="4" fill="rgb(0,0,0)" />
<circle cx="593" cy="275" r="4" fill="rgb(0,0,0)" />
<circle cx="623" cy="275" r="4" fill="rgb(0,0,0)" />
<circle cx="647" cy="261" r="4" fill="rgb(0,0,0)" />
<circle cx="657" cy="248" r="4" fill="rgb(0,0,0)" />
<circle cx="670" cy="237" r="4" fill="rgb(0,0,0)" />
<text x="692" y="216" fill="rgb(0,0,0)" >Marne-la-Vallee-Chessy</text>
<circle cx="682" cy="226" r="8" fill="rgb(255,255,255)" />
<circle cx="682" cy="226" r="6" fill="rgb(0,0,0)" />
<circle cx="457" cy="290" r="4" fill="rgb(0,0,0)" />
<circle cx="457" cy="310" r="4" fill="rgb(0,0,0)" />
<circle cx="457" cy="322" r="4" fill="rgb(0,0,0)" />
<circle cx="462" cy="338" r="4" fill="rgb(0,0,0)" />
<circle cx="480" cy="348" r="4" fill="rgb(0,0,0)" />
<circle cx="499" cy="345" r="4" fill="rgb(0,0,0)" />
<circle cx="503" cy="363" r="4" fill="rgb(0,0,0)" />
<text x="515" y="371" fill="rgb(0,0,0)" >Sucy-Bonneuil</text>
<circle cx="505" cy="381" r="8" fill="rgb(255,255,255)" />
<circle cx="505" cy="381" r="6" fill="rgb(0,0,0)" />
<text x="541" y="80" fill="rgb(0,0,0)" >Aroport_Charles_de_Gaulle_2_TGV</text>
<circle cx="531" cy="90" r="8" fill="rgb(255,255,255)" />
<circle cx="531" cy="90" r="6" fill="rgb(0,0,0)" />
<circle cx="499" cy="89" r="4" fill="rgb(0,0,0)" />
<circle cx="479" cy="101" r="4" fill="rgb(0,0,0)" />
<circle cx="487" cy="122" r="4" fill="rgb(0,0,0)" />
<circle cx="502" cy="138" r="4" fill="rgb(0,0,0)" />
<text x="596" y="122" fill="rgb(0,0,0)" >Mitry-Claye</text>
<circle cx="586" cy="132" r="8" fill="rgb(255,255,255)" />
<circle cx="586" cy="132" r="6" fill="rgb(0,0,0)" />
<circle cx="570" cy="149" r="4" fill="rgb(0,0,0)" />
<circle cx="545" cy="155" r="4" fill="rgb(0,0,0)" />
<circle cx="514" cy="155" r="4" fill="rgb(0,0,0)" />
<circle cx="480" cy="154" r="4" fill="rgb(0,0,0)" />
<circle cx="449" cy="155" r="4" fill="rgb(0,0,0)" />
<circle cx="431" cy="166" r="4" fill="rgb(0,0,0)" />
<circle cx="400" cy="166" r="4" fill="rgb(0,0,0)" />
<circle cx="374" cy="165" r="4" fill="rgb(0,0,0)" />
<circle cx="343" cy="177" r="4" fill="rgb(0,0,0)" />
<text x="346" y="194" fill="rgb(0,0,0)" >Gare_du_Nord</text>
<circle cx="336" cy="204" r="8" fill="rgb(255,255,255)" />
<circle cx="336" cy="204" r="6" fill="rgb(0,0,0)" />
<circle cx="331" cy="258" r="4" fill="rgb(0,0,0)" />
<text x="322" y="299" fill="rgb(0,0,0)" >Saint-Michel-Notre-Dame</text>
<circle cx="312" cy="309" r="8" fill="rgb(255,255,255)" />
<circle cx="312" cy="309" r="6" fill="rgb(0,0,0)" />
<circle cx="311" cy="319" r="4" fill="rgb(0,0,0)" />
<circle cx="311" cy="326" r="4" fill="rgb(0,0,0)" />
<circle cx="311" cy="335" r="4" fill="rgb(0,0,0)" />
<circle cx="311" cy="341" r="4" fill="rgb(0,0,0)" />
<circle cx="311" cy="351" r="4" fill="rgb(0,0,0)" />
<circle cx="311" cy="359" r="4" fill="rgb(0,0,0)" />
<circle cx="310" cy="370" r="4" fill="rgb(0,0,0)" />
<circle cx="309" cy="381" r="4" fill="rgb(0,0,0)" />
<circle cx="287" cy="381" r="4" fill="rgb(0,0,0)" />
<circle cx="258" cy="383" r="4" fill="rgb(0,0,0)" />
<circle cx="228" cy="397" r="4" fill="rgb(0,0,0)" />
<text x="200" y="390" fill="rgb(0,0,0)" >Robinson</text>
<circle cx="190" cy="400" r="8" fill="rgb(255,255,255)" />
<circle cx="190" cy="400" r="6" fill="rgb(0,0,0)" />
<circle cx="291" cy="409" r="4" fill="rgb(0,0,0)" />
<circle cx="281" cy="419" r="4" fill="rgb(0,0,0)" />
<circle cx="270" cy="433" r="4" fill="rgb(0,0,0)" />
<circle cx="260" cy="440" r="4" fill="rgb(0,0,0)" />
<circle cx="242" cy="458" r="4" fill="rgb(0,0,0)" />
<circle cx="231" cy="472" r="4" fill="rgb(0,0,0)" />
<text x="230" y="474" fill="rgb(0,0,0)" >Massy-Palaiseau</text>
<circle cx="220" cy="484" r="8" fill="rgb(255,255,255)" />
<circle cx="220" cy="484" r="6" fill="rgb(0,0,0)" />
<circle cx="208" cy="491" r="4" fill="rgb(0,0,0)" />
<circle cx="191" cy="496" r="4" fill="rgb(0,0,0)" />
<circle cx="173" cy="498" r="4" fill="rgb(0,0,0)" />
<circle cx="153" cy="497" r="4" fill="rgb(0,0,0)" />
<circle cx="136" cy="509" r="4" fill="rgb(0,0,0)" />
<circle cx="123" cy="520" r="4" fill="rgb(0,0,0)" />
<circle cx="110" cy="531" r="4" fill="rgb(0,0,0)" />
<circle cx="89" cy="532" r="4" fill="rgb(0,0,0)" />
<text x="79" y="522" fill="rgb(0,0,0)" >Courcelle-sur-Yvette</text>
<circle cx="69" cy="532" r="8" fill="rgb(255,255,255)" />
<circle cx="69" cy="532" r="6" fill="rgb(0,0,0)" />
<text x="178" y="38" fill="rgb(0,0,0)" >Pontoise</text>
<circle cx="168" cy="48" r="8" fill="rgb(255,255,255)" />
<circle cx="168" cy="48" r="6" fill="rgb(0,0,0)" />
<circle cx="179" cy="60" r="4" fill="rgb(0,0,0)" />
<circle cx="189" cy="72" r="4" fill="rgb(0,0,0)" />
<circle cx="201" cy="83" r="4" fill="rgb(0,0,0)" />
<circle cx="212" cy="94" r="4" fill="rgb(0,0,0)" />
<circle cx="226" cy="104" r="4" fill="rgb(0,0,0)" />
<circle cx="236" cy="115" r="4" fill="rgb(0,0,0)" />
<circle cx="246" cy="127" r="4" fill="rgb(0,0,0)" />
<circle cx="258" cy="135" r="4" fill="rgb(0,0,0)" />
<circle cx="271" cy="149" r="4" fill="rgb(0,0,0)" />
<circle cx="282" cy="164" r="4" fill="rgb(0,0,0)" />
<circle cx="286" cy="179" r="4" fill="rgb(0,0,0)" />
<circle cx="285" cy="200" r="4" fill="rgb(0,0,0)" />
<circle cx="276" cy="214" r="4" fill="rgb(0,0,0)" />
<circle cx="260" cy="239" r="4" fill="rgb(0,0,0)" />
<circle cx="232" cy="254" r="4" fill="rgb(0,0,0)" />
<circle cx="223" cy="268" r="4" fill="rgb(0,0,0)" />
<circle cx="223" cy="278" r="4" fill="rgb(0,0,0)" />
<circle cx="222" cy="292" r="4" fill="rgb(0,0,0)" />
<circle cx="232" cy="300" r="4" fill="rgb(0,0,0)" />
<text x="66" y="386" fill="rgb(0,0,0)" >Yvelines</text>
<circle cx="56" cy="396" r="8" fill="rgb(255,255,255)" />
<circle cx="56" cy="396" r="6" fill="rgb(0,0,0)" />
<circle cx="76" cy="404" r="4" fill="rgb(0,0,0)" />
<text x="126" y="372" fill="rgb(0,0,0)" >Chantiers</text>
<circle cx="116" cy="382" r="8" fill="rgb(255,255,255)" />
<circle cx="116" cy="382" r="6" fill="rgb(0,0,0)" />
<circle cx="152" cy="380" r="4" fill="rgb(0,0,0)" />
<circle cx="153" cy="378" r="4" fill="rgb(0,0,0)" />
<circle cx="184" cy="366" r="4" fill="rgb(0,0,0)" />
<circle cx="195" cy="355" r="4" fill="rgb(0,0,0)" />
<circle cx="212" cy="356" r="4" fill="rgb(0,0,0)" />
<circle cx="227" cy="348" r="4" fill="rgb(0,0,0)" />
<circle cx="237" cy="333" r="4" fill="rgb(0,0,0)" />
<circle cx="241" cy="320" r="4" fill="rgb(0,0,0)" />
<circle cx="241" cy="306" r="4" fill="rgb(0,0,0)" />
<circle cx="243" cy="288" r="4" fill="rgb(0,0,0)" />
<circle cx="255" cy="282" r="4" fill="rgb(0,0,0)" />
<circle cx="262" cy="276" r="4" fill="rgb(0,0,0)" />
<circle cx="275" cy="272" r="4" fill="rgb(0,0,0)" />
<circle cx="318" cy="276" r="4" fill="rgb(0,0,0)" />
<circle cx="312" cy="309" r="4" fill="rgb(0,0,0)" />
<circle cx="370" cy="324" r="4" fill="rgb(0,0,0)" />
<circle cx="380" cy="349" r="4" fill="rgb(0,0,0)" />
<circle cx="380" cy="363" r="4" fill="rgb(0,0,0)" />
<circle cx="379" cy="381" r="4" fill="rgb(0,0,0)" />
<circle cx="380" cy="404" r="4" fill="rgb(0,0,0)" />
<circle cx="179" cy="424" r="4" fill="rgb(0,0,0)" />
<circle cx="189" cy="435" r="4" fill="rgb(0,0,0)" />
<circle cx="202" cy="446" r="4" fill="rgb(0,0,0)" />
<circle cx="215" cy="458" r="4" fill="rgb(0,0,0)" />
<circle cx="231" cy="473" r="4" fill="rgb(0,0,0)" />
<circle cx="220" cy="484" r="4" fill="rgb(0,0,0)" />
<circle cx="264" cy="445" r="4" fill="rgb(0,0,0)" />
<circle cx="280" cy="430" r="4" fill="rgb(0,0,0)" />
<circle cx="315" cy="427" r="4" fill="rgb(0,0,0)" />
<circle cx="345" cy="426" r="4" fill="rgb(0,0,0)" />
<circle cx="374" cy="413" r="4" fill="rgb(0,0,0)" />
<circle cx="381" cy="437" r="4" fill="rgb(0,0,0)" />
<circle cx="381" cy="453" r="4" fill="rgb(0,0,0)" />
<circle cx="381" cy="471" r="4" fill="rgb(0,0,0)" />
<circle cx="381" cy="458" r="4" fill="rgb(0,0,0)" />
<circle cx="381" cy="458" r="4" fill="rgb(0,0,0)" />
<circle cx="298" cy="524" r="4" fill="rgb(0,0,0)" />
<circle cx="301" cy="541" r="4" fill="rgb(0,0,0)" />
<circle cx="335" cy="541" r="4" fill="rgb(0,0,0)" />
<circle cx="319" cy="552" r="4" fill="rgb(0,0,0)" />
<circle cx="309" cy="577" r="4" fill="rgb(0,0,0)" />
<text x="319" y="585" fill="rgb(0,0,0)" >Bretigny</text>
<circle cx="309" cy="595" r="8" fill="rgb(255,255,255)" />
<circle cx="309" cy="595" r="6" fill="rgb(0,0,0)" />
<circle cx="299" cy="611" r="4" fill="rgb(0,0,0)" />
<circle cx="274" cy="620" r="4" fill="rgb(0,0,0)" />
<circle cx="245" cy="620" r="4" fill="rgb(0,0,0)" />
<circle cx="215" cy="619" r="4" fill="rgb(0,0,0)" />
<circle cx="179" cy="619" r="4" fill="rgb(0,0,0)" />
<circle cx="143" cy="620" r="4" fill="rgb(0,0,0)" />
<circle cx="108" cy="620" r="4" fill="rgb(0,0,0)" />
<circle cx="69" cy="619" r="4" fill="rgb(0,0,0)" />
<text x="41" y="609" fill="rgb(0,0,0)" >Foret</text>
<circle cx="31" cy="619" r="8" fill="rgb(255,255,255)" />
<circle cx="31" cy="619" r="6" fill="rgb(0,0,0)" />
<text x="434" y="-11" fill="rgb(0,0,0)" >Coye</text>
<circle cx="424" cy="-1" r="8" fill="rgb(255,255,255)" />
<circle cx="424" cy="-1" r="6" fill="rgb(0,0,0)" />
<circle cx="424" cy="6" r="4" fill="rgb(0,0,0)" />
<circle cx="424" cy="22" r="4" fill="rgb(0,0,0)" />
<circle cx="424" cy="41" r="4" fill="rgb(0,0,0)" />
<circle cx="418" cy="59" r="4" fill="rgb(0,0,0)" />
<circle cx="403" cy="75" r="4" fill="rgb(0,0,0)" />
<circle cx="386" cy="93" r="4" fill="rgb(0,0,0)" />
<circle cx="366" cy="109" r="4" fill="rgb(0,0,0)" />
<circle cx="352" cy="123" r="4" fill="rgb(0,0,0)" />
<circle cx="329" cy="153" r="4" fill="rgb(0,0,0)" />
<circle cx="336" cy="204" r="4" fill="rgb(0,0,0)" />
<circle cx="331" cy="258" r="4" fill="rgb(0,0,0)" />
<circle cx="352" cy="286" r="4" fill="rgb(0,0,0)" />
<circle cx="393" cy="354" r="4" fill="rgb(0,0,0)" />
<circle cx="393" cy="371" r="4" fill="rgb(0,0,0)" />
<circle cx="392" cy="388" r="4" fill="rgb(0,0,0)" />
<circle cx="392" cy="398" r="4" fill="rgb(0,0,0)" />
<circle cx="392" cy="423" r="4" fill="rgb(0,0,0)" />
<circle cx="392" cy="444" r="4" fill="rgb(0,0,0)" />
<circle cx="409" cy="474" r="4" fill="rgb(0,0,0)" />
<circle cx="425" cy="492" r="4" fill="rgb(0,0,0)" />
<circle cx="444" cy="508" r="4" fill="rgb(0,0,0)" />
<circle cx="458" cy="526" r="4" fill="rgb(0,0,0)" />
<circle cx="475" cy="543" r="4" fill="rgb(0,0,0)" />
<circle cx="497" cy="562" r="4" fill="rgb(0,0,0)" />
<circle cx="508" cy="577" r="4" fill="rgb(0,0,0)" />
<circle cx="526" cy="594" r="4" fill="rgb(0,0,0)" />
<text x="570" y="619" fill="rgb(0,0,0)" >Melun</text>
<circle cx="560" cy="629" r="8" fill="rgb(255,255,255)" />
<circle cx="560" cy="629" r="6" fill="rgb(0,0,0)" />
<circle cx="388" cy="489" r="4" fill="rgb(0,0,0)" />
<text x="377" y="502" fill="rgb(0,0,0)" >Juvisy</text>
<circle cx="367" cy="512" r="8" fill="rgb(255,255,255)" />
<circle cx="367" cy="512" r="6" fill="rgb(0,0,0)" />
<circle cx="382" cy="532" r="4" fill="rgb(0,0,0)" />
<circle cx="412" cy="561" r="4" fill="rgb(0,0,0)" />
<circle cx="428" cy="577" r="4" fill="rgb(0,0,0)" />
<circle cx="441" cy="609" r="4" fill="rgb(0,0,0)" />
<circle cx="440" cy="630" r="4" fill="rgb(0,0,0)" />
<circle cx="452" cy="646" r="4" fill="rgb(0,0,0)" />
<circle cx="492" cy="670" r="4" fill="rgb(0,0,0)" />
<circle cx="528" cy="634" r="4" fill="rgb(0,0,0)" />
<circle cx="560" cy="627" r="4" fill="rgb(0,0,0)" />
<circle cx="454" cy="616" r="4" fill="rgb(0,0,0)" />
<circle cx="416" cy="640" r="4" fill="rgb(0,0,0)" />
<circle cx="405" cy="652" r="4" fill="rgb(0,0,0)" />
<circle cx="395" cy="660" r="4" fill="rgb(0,0,0)" />
<circle cx="393" cy="668" r="4" fill="rgb(0,0,0)" />
<circle cx="393" cy="680" r="4" fill="rgb(0,0,0)" />
<circle cx="391" cy="705" r="4" fill="rgb(0,0,0)" />
<circle cx="390" cy="714" r="4" fill="rgb(0,0,0)" />
<text x="290" y="219" fill="rgb(0,0,0)" >Saint-Lazare</text>
<circle cx="280" cy="229" r="8" fill="rgb(255,255,255)" />
<circle cx="280" cy="229" r="6" fill="rgb(0,0,0)" />
<circle cx="343" cy="211" r="4" fill="rgb(0,0,0)" />
<circle cx="343" cy="211" r="4" fill="rgb(0,0,0)" />
<circle cx="397" cy="201" r="4" fill="rgb(0,0,0)" />
<circle cx="429" cy="199" r="4" fill="rgb(0,0,0)" />
<circle cx="435" cy="205" r="4" fill="rgb(0,0,0)" />
<circle cx="464" cy="210" r="4" fill="rgb(0,0,0)" />
<circle cx="475" cy="210" r="4" fill="rgb(0,0,0)" />
<text x="515" y="200" fill="rgb(0,0,0)" >Chelles</text>
<circle cx="505" cy="210" r="8" fill="rgb(255,255,255)" />
<circle cx="505" cy="210" r="6" fill="rgb(0,0,0)" />
<text x="445" y="220" fill="rgb(0,0,0)" >Perrier</text>
<circle cx="435" cy="230" r="8" fill="rgb(255,255,255)" />
<circle cx="435" cy="230" r="6" fill="rgb(0,0,0)" />
<circle cx="439" cy="245" r="4" fill="rgb(0,0,0)" />
<circle cx="450" cy="265" r="4" fill="rgb(0,0,0)" />
<circle cx="465" cy="275" r="4" fill="rgb(0,0,0)" />
<circle cx="470" cy="280" r="4" fill="rgb(0,0,0)" />
<circle cx="490" cy="300" r="4" fill="rgb(0,0,0)" />
<circle cx="505" cy="315" r="4" fill="rgb(0,0,0)" />
<circle cx="520" cy="330" r="4" fill="rgb(0,0,0)" />
<circle cx="535" cy="345" r="4" fill="rgb(0,0,0)" />
<circle cx="550" cy="360" r="4" fill="rgb(0,0,0)" />
<text x="575" y="365" fill="rgb(0,0,0)" >Gretz-Armainvilliers</text>
<circle cx="565" cy="375" r="8" fill="rgb(255,255,255)" />
<circle cx="565" cy="375" r="6" fill="rgb(0,0,0)" />


</svg>
